<svg width="16" height="16" viewBox="0 0 16 16" fill="none" xmlns="http://www.w3.org/2000/svg">
<path d="M8.74997 6.49864V3.99864C8.74997 3.79973 8.82899 3.60897 8.96964 3.46831C9.1103 3.32766 9.30106 3.24864 9.49997 3.24864C9.69888 3.24864 9.88965 3.32766 10.0303 3.46831C10.171 3.60897 10.25 3.79973 10.25 3.99864V4.68614L12.4693 2.46614C12.6102 2.32525 12.8013 2.24609 13.0006 2.24609C13.1999 2.24609 13.391 2.32525 13.5318 2.46614C13.6727 2.60704 13.7519 2.79814 13.7519 2.99739C13.7519 3.19665 13.6727 3.38775 13.5318 3.52864L11.3125 5.74864H12C12.1989 5.74864 12.3896 5.82766 12.5303 5.96831C12.671 6.10897 12.75 6.29973 12.75 6.49864C12.75 6.69756 12.671 6.88832 12.5303 7.02897C12.3896 7.16963 12.1989 7.24864 12 7.24864H9.49997C9.30106 7.24864 9.1103 7.16963 8.96964 7.02897C8.82899 6.88832 8.74997 6.69756 8.74997 6.49864ZM6.49997 8.74864H3.99997C3.80106 8.74864 3.61029 8.82766 3.46964 8.96832C3.32899 9.10897 3.24997 9.29973 3.24997 9.49864C3.24997 9.69756 3.32899 9.88832 3.46964 10.029C3.61029 10.1696 3.80106 10.2486 3.99997 10.2486H4.68747L2.46935 12.468C2.32845 12.6089 2.2493 12.8 2.2493 12.9993C2.2493 13.1985 2.32845 13.3896 2.46935 13.5305C2.61024 13.6714 2.80134 13.7506 3.0006 13.7506C3.19986 13.7506 3.39095 13.6714 3.53185 13.5305L5.74997 11.3111V11.9986C5.74997 12.1976 5.82899 12.3883 5.96964 12.529C6.11029 12.6696 6.30106 12.7486 6.49997 12.7486C6.69888 12.7486 6.88965 12.6696 7.0303 12.529C7.17096 12.3883 7.24997 12.1976 7.24997 11.9986V9.49864C7.24997 9.29973 7.17096 9.10897 7.0303 8.96832C6.88965 8.82766 6.69888 8.74864 6.49997 8.74864ZM11.3125 10.2486H12C12.1989 10.2486 12.3896 10.1696 12.5303 10.029C12.671 9.88832 12.75 9.69756 12.75 9.49864C12.75 9.29973 12.671 9.10897 12.5303 8.96832C12.3896 8.82766 12.1989 8.74864 12 8.74864H9.49997C9.30106 8.74864 9.1103 8.82766 8.96964 8.96832C8.82899 9.10897 8.74997 9.29973 8.74997 9.49864V11.9986C8.74997 12.1976 8.82899 12.3883 8.96964 12.529C9.1103 12.6696 9.30106 12.7486 9.49997 12.7486C9.69888 12.7486 9.88965 12.6696 10.0303 12.529C10.171 12.3883 10.25 12.1976 10.25 11.9986V11.3111L12.4693 13.5311C12.6102 13.672 12.8013 13.7512 13.0006 13.7512C13.1999 13.7512 13.391 13.672 13.5318 13.5311C13.6727 13.3902 13.7519 13.1992 13.7519 12.9999C13.7519 12.8006 13.6727 12.6095 13.5318 12.4686L11.3125 10.2486ZM6.49997 3.24864C6.30106 3.24864 6.11029 3.32766 5.96964 3.46831C5.82899 3.60897 5.74997 3.79973 5.74997 3.99864V4.68614L3.5306 2.46802C3.3897 2.32712 3.19861 2.24797 2.99935 2.24797C2.80009 2.24797 2.60899 2.32712 2.4681 2.46802C2.3272 2.60892 2.24805 2.80001 2.24805 2.99927C2.24805 3.19853 2.3272 3.38962 2.4681 3.53052L4.68747 5.74864H3.99997C3.80106 5.74864 3.61029 5.82766 3.46964 5.96831C3.32899 6.10897 3.24997 6.29973 3.24997 6.49864C3.24997 6.69756 3.32899 6.88832 3.46964 7.02897C3.61029 7.16963 3.80106 7.24864 3.99997 7.24864H6.49997C6.69888 7.24864 6.88965 7.16963 7.0303 7.02897C7.17096 6.88832 7.24997 6.69756 7.24997 6.49864V3.99864C7.24997 3.79973 7.17096 3.60897 7.0303 3.46831C6.88965 3.32766 6.69888 3.24864 6.49997 3.24864Z" fill="#BDBDBD"/>
</svg>
