<svg width="12" height="14" viewBox="0 0 12 14" fill="none" xmlns="http://www.w3.org/2000/svg">
<path d="M1.83366 13.6673V12.0007H0.166992V2.00065H1.83366V0.333984H3.50033V2.00065H5.16699V12.0007H3.50033V13.6673H1.83366ZM1.83366 10.334H3.50033V3.66732H1.83366V10.334ZM8.50033 13.6673V9.50065H6.83366V3.66732H8.50033V0.333984H10.167V3.66732H11.8337V9.50065H10.167V13.6673H8.50033ZM8.50033 7.83398H10.167V5.33398H8.50033V7.83398Z" fill="#BDBDBD"/>
<path d="M1.83366 13.6673V12.0007H0.166992V2.00065H1.83366V0.333984H3.50033V2.00065H5.16699V12.0007H3.50033V13.6673H1.83366ZM1.83366 10.334H3.50033V3.66732H1.83366V10.334Z" fill="#BDBDBD"/>
</svg>
